<svg width="30" height="27" viewBox="0 0 30 27" fill="none" xmlns="http://www.w3.org/2000/svg">
<g id="Frame" clip-path="url(#clip0_105_820)">
<g id="Group">
<path id="Vector" d="M0 0.660047C0.218498 0.169573 0.588534 -0.00840186 1.12009 -0.00125904C2.74121 0.0219551 4.36291 0.00647901 5.98461 0.00766948C6.62248 0.00766948 6.905 0.229692 7.05184 0.869569C7.25389 1.75409 7.44478 2.64158 7.64977 3.57193C7.76607 3.57193 7.88883 3.57193 8.01217 3.57193C14.9871 3.57193 21.962 3.58027 28.9363 3.55884C29.6505 3.55646 30.1815 4.06181 29.9418 4.89871C28.7935 8.90762 27.6717 12.9249 26.5398 16.9385C26.3419 17.6409 26.094 17.8272 25.3634 17.8272C20.1958 17.8272 15.0282 17.8272 9.86059 17.8272C9.32727 17.8272 8.98837 18.029 8.8521 18.423C8.66121 18.976 9.01949 19.5337 9.61508 19.6034C9.73079 19.6171 9.84943 19.6111 9.96632 19.6111C15.1533 19.6117 20.3409 19.6111 25.5278 19.6117C26.0929 19.6117 26.4776 19.9534 26.4946 20.4623C26.5117 20.973 26.141 21.3784 25.6341 21.3891C25.2048 21.398 24.7754 21.3909 24.3372 21.4111C25.0509 21.5873 25.6359 21.9581 26.0435 22.5736C26.4594 23.2016 26.5904 23.8998 26.4329 24.6426C26.1645 25.9099 24.9916 26.8063 23.7088 26.7331C22.4348 26.6605 21.401 25.6766 21.2407 24.3736C21.1085 23.3016 21.6489 21.8635 23.4351 21.4052C19.5585 21.4052 15.7348 21.4052 11.9105 21.4052C12.6106 21.5849 13.195 21.9474 13.6032 22.5569C14.0162 23.173 14.1524 23.8557 14.015 24.5932C13.7842 25.8307 12.6529 26.7575 11.3907 26.7379C10.1014 26.7182 9.02419 25.7593 8.82508 24.454C8.61304 23.0635 9.4001 21.9415 11.0153 21.3921C10.5783 21.3921 10.1983 21.3927 9.81772 21.3921C8.46033 21.3903 7.4348 20.6183 7.10705 19.3516C6.80104 18.1695 7.35492 16.9754 8.51143 16.3207C8.54432 16.3022 8.57428 16.2784 8.61422 16.251C7.55697 11.4308 6.50148 6.61596 5.44247 1.78742C4.51562 1.78742 3.60815 1.78742 2.70068 1.78742C2.18322 1.78742 1.66399 1.76242 1.1477 1.79456C0.609092 1.8273 0.222609 1.64337 0 1.13504C0 0.976712 0 0.818379 0 0.660047ZM27.9613 5.3624C21.3088 5.3624 14.6881 5.3624 8.04037 5.3624C8.82273 8.92964 9.60098 12.4808 10.3792 16.029C15.2514 16.029 20.1018 16.029 24.9534 16.029C25.956 12.4743 26.9539 8.93619 27.9613 5.3624ZM12.3081 24.0903C12.3252 23.623 11.9252 23.195 11.4553 23.1778C10.9942 23.1605 10.5719 23.5659 10.5549 24.0421C10.5378 24.5093 10.9378 24.9373 11.4077 24.9545C11.8688 24.9718 12.2905 24.567 12.3081 24.0903ZM23.9026 23.1796C23.4445 23.1486 23.0157 23.5421 22.984 24.0224C22.9534 24.4867 23.3417 24.9212 23.8157 24.9534C24.2738 24.9843 24.7026 24.5909 24.7343 24.1105C24.7648 23.6456 24.3766 23.2117 23.9026 23.1796Z" fill="#2C2C2C"/>
</g>
</g>
<defs>
<clipPath id="clip0_105_820">
<rect width="30" height="26.7391" fill="white"/>
</clipPath>
</defs>
</svg>
